<svg width="218" height="40" viewBox="0 0 218 40" fill="none" xmlns="http://www.w3.org/2000/svg">
<path d="M201 11.4286C201 10.6396 201.64 10 202.429 10H205.286C206.075 10 206.715 10.6396 206.715 11.4286C206.715 12.2175 206.075 12.8572 205.286 12.8572H202.429C201.64 12.8572 201 12.2175 201 11.4286Z" fill="white"/>
<path fill-rule="evenodd" clip-rule="evenodd" d="M49 0C60.0453 0 69.0003 8.95431 69.0003 20C69.0003 31.0457 60.0453 40 49 40C37.9543 40 29 31.0457 29 20C29 8.95431 37.9543 0 49 0ZM48.2771 1.49659C45.9954 1.81769 43.8228 3.65108 42.1363 6.7174C41.6471 7.60683 41.2057 8.58946 40.8211 9.65044C43.1143 9.07417 45.6334 8.73442 48.2771 8.68187V1.49659ZM39.1307 10.1308C39.6091 8.62958 40.1942 7.2484 40.8695 6.02065C41.7055 4.50059 42.6977 3.18795 43.8156 2.17977C37.7367 3.94523 32.9452 8.73679 31.1797 14.8157C32.1879 13.6978 33.5005 12.7056 35.0206 11.8696C36.2484 11.1943 37.6295 10.6091 39.1307 10.1308ZM38.6504 11.8211C38.0741 14.1143 37.7344 16.6334 37.6818 19.2771H30.4965C30.8176 16.9954 32.651 14.8228 35.7174 13.1364C36.6068 12.6472 37.5894 12.2058 38.6504 11.8211ZM39.1279 19.2771C39.1876 16.392 39.603 13.6834 40.2902 11.2902C42.6834 10.603 45.392 10.1876 48.2771 10.1279V13.2508C47.2008 16.0062 45.0056 18.2012 42.2501 19.2771H39.1279ZM37.6818 20.7229H30.4965C30.8176 23.0046 32.651 25.1771 35.7174 26.8636C36.6068 27.3528 37.5894 27.7942 38.6504 28.1789C38.0741 25.8857 37.7344 23.3666 37.6818 20.7229ZM40.2902 28.7098C39.603 26.3166 39.1876 23.608 39.1279 20.7229H42.2501C45.0056 21.7988 47.2008 23.9938 48.2771 26.7492V29.8721C45.392 29.8124 42.6834 29.397 40.2902 28.7098ZM39.1307 29.8692C37.6295 29.3909 36.2484 28.8057 35.0206 28.1304C33.5005 27.2944 32.1879 26.3022 31.1797 25.1843C32.9452 31.2632 37.7367 36.0548 43.8156 37.8202C42.6977 36.812 41.7055 35.4994 40.8695 33.9793C40.1942 32.7516 39.6091 31.3704 39.1307 29.8692ZM48.2771 38.5034C45.9954 38.1823 43.8228 36.3489 42.1363 33.2826C41.6471 32.3932 41.2057 31.4105 40.8211 30.3496C43.1143 30.9258 45.6334 31.2656 48.2771 31.3181V38.5034ZM54.1843 37.8202C55.3022 36.812 56.2943 35.4994 57.1303 33.9793C57.8053 32.7516 58.3913 31.3704 58.8693 29.8692C60.3703 29.3909 61.7513 28.8057 62.9793 28.1304C64.4993 27.2944 65.8123 26.3022 66.8203 25.1843C65.0543 31.2632 60.2633 36.0548 54.1843 37.8202ZM57.1793 30.3496C56.7943 31.4105 56.3523 32.3932 55.8633 33.2826C54.1771 36.3489 52.0045 38.1823 49.7228 38.5034V31.3181C52.3665 31.2656 54.8856 30.9258 57.1793 30.3496ZM59.3493 28.1789C60.4103 27.7942 61.3933 27.3528 62.2823 26.8636C65.3493 25.1772 67.1823 23.0046 67.5033 20.7229H60.3183C60.2653 23.3666 59.9253 25.8857 59.3493 28.1789ZM58.8723 20.7229C58.8123 23.608 58.3973 26.3166 57.7093 28.7098C55.3165 29.397 52.6079 29.8124 49.7228 29.8721V26.7515C50.7988 23.9951 52.9945 21.7991 55.7507 20.7229H58.8723ZM60.3183 19.2771H67.5033C67.1823 16.9954 65.3493 14.8228 62.2823 13.1364C61.3933 12.6472 60.4103 12.2058 59.3493 11.8211C59.9253 14.1143 60.2653 16.6334 60.3183 19.2771ZM57.7093 11.2902C58.3973 13.6834 58.8123 16.392 58.8723 19.2771H55.7508C52.9945 18.2009 50.7988 16.0049 49.7228 13.2485V10.1279C52.6079 10.1876 55.3165 10.603 57.7093 11.2902ZM58.8693 10.1308C60.3703 10.6091 61.7513 11.1943 62.9793 11.8696C64.4993 12.7056 65.8123 13.6978 66.8203 14.8157C65.0543 8.73679 60.2633 3.94523 54.1843 2.17977C55.3022 3.18795 56.2943 4.50059 57.1303 6.02065C57.8053 7.2484 58.3913 8.62958 58.8693 10.1308ZM49.7228 1.49659C52.0045 1.81769 54.1771 3.65108 55.8633 6.7174C56.3523 7.60684 56.7943 8.58946 57.1793 9.65044C54.8856 9.07417 52.3665 8.73442 49.7228 8.68187V1.49659Z" fill="url(#paint0_linear_4_19)"/>
<path d="M79.016 13.96V18.16H84.656V20.824H79.016V25.264H85.376V28H75.656V11.224H85.376V13.96H79.016ZM87.5654 21.304C87.5654 19.96 87.8294 18.768 88.3574 17.728C88.9014 16.688 89.6374 15.888 90.5654 15.328C91.4934 14.768 92.5254 14.488 93.6614 14.488C94.5254 14.488 95.3494 14.68 96.1334 15.064C96.9174 15.432 97.5414 15.928 98.0054 16.552V10.24H101.413V28H98.0054V26.032C97.5894 26.688 97.0054 27.216 96.2534 27.616C95.5014 28.016 94.6294 28.216 93.6374 28.216C92.5174 28.216 91.4934 27.928 90.5654 27.352C89.6374 26.776 88.9014 25.968 88.3574 24.928C87.8294 23.872 87.5654 22.664 87.5654 21.304ZM98.0294 21.352C98.0294 20.536 97.8694 19.84 97.5494 19.264C97.2294 18.672 96.7974 18.224 96.2534 17.92C95.7094 17.6 95.1254 17.44 94.5014 17.44C93.8774 17.44 93.3014 17.592 92.7734 17.896C92.2454 18.2 91.8134 18.648 91.4774 19.24C91.1574 19.816 90.9974 20.504 90.9974 21.304C90.9974 22.104 91.1574 22.808 91.4774 23.416C91.8134 24.008 92.2454 24.464 92.7734 24.784C93.3174 25.104 93.8934 25.264 94.5014 25.264C95.1254 25.264 95.7094 25.112 96.2534 24.808C96.7974 24.488 97.2294 24.04 97.5494 23.464C97.8694 22.872 98.0294 22.168 98.0294 21.352ZM117.247 14.704V28H113.863V26.32C113.431 26.896 112.863 27.352 112.159 27.688C111.471 28.008 110.719 28.168 109.903 28.168C108.863 28.168 107.943 27.952 107.143 27.52C106.343 27.072 105.711 26.424 105.247 25.576C104.799 24.712 104.575 23.688 104.575 22.504V14.704H107.935V22.024C107.935 23.08 108.199 23.896 108.727 24.472C109.255 25.032 109.975 25.312 110.887 25.312C111.815 25.312 112.543 25.032 113.071 24.472C113.599 23.896 113.863 23.08 113.863 22.024V14.704H117.247ZM126.346 28.168C125.178 28.168 124.122 27.968 123.178 27.568C122.25 27.168 121.514 26.592 120.97 25.84C120.426 25.088 120.146 24.2 120.13 23.176H123.73C123.778 23.864 124.018 24.408 124.45 24.808C124.898 25.208 125.506 25.408 126.274 25.408C127.058 25.408 127.674 25.224 128.122 24.856C128.57 24.472 128.794 23.976 128.794 23.368C128.794 22.872 128.642 22.464 128.338 22.144C128.034 21.824 127.65 21.576 127.186 21.4C126.738 21.208 126.114 21 125.314 20.776C124.226 20.456 123.338 20.144 122.65 19.84C121.978 19.52 121.394 19.048 120.898 18.424C120.418 17.784 120.178 16.936 120.178 15.88C120.178 14.888 120.426 14.024 120.922 13.288C121.418 12.552 122.114 11.992 123.01 11.608C123.906 11.208 124.93 11.008 126.082 11.008C127.81 11.008 129.21 11.432 130.282 12.28C131.37 13.112 131.97 14.28 132.082 15.784H128.386C128.354 15.208 128.106 14.736 127.642 14.368C127.194 13.984 126.594 13.792 125.842 13.792C125.186 13.792 124.658 13.96 124.258 14.296C123.874 14.632 123.682 15.12 123.682 15.76C123.682 16.208 123.826 16.584 124.114 16.888C124.418 17.176 124.786 17.416 125.218 17.608C125.666 17.784 126.29 17.992 127.09 18.232C128.178 18.552 129.066 18.872 129.754 19.192C130.442 19.512 131.034 19.992 131.53 20.632C132.026 21.272 132.274 22.112 132.274 23.152C132.274 24.048 132.042 24.88 131.578 25.648C131.114 26.416 130.434 27.032 129.538 27.496C128.642 27.944 127.578 28.168 126.346 28.168ZM138.547 16.624C138.979 16.016 139.571 15.512 140.323 15.112C141.091 14.696 141.963 14.488 142.939 14.488C144.075 14.488 145.099 14.768 146.011 15.328C146.939 15.888 147.667 16.688 148.195 17.728C148.739 18.752 149.011 19.944 149.011 21.304C149.011 22.664 148.739 23.872 148.195 24.928C147.667 25.968 146.939 26.776 146.011 27.352C145.099 27.928 144.075 28.216 142.939 28.216C141.963 28.216 141.099 28.016 140.347 27.616C139.611 27.216 139.011 26.712 138.547 26.104V34.336H135.187V14.704H138.547V16.624ZM145.579 21.304C145.579 20.504 145.411 19.816 145.075 19.24C144.755 18.648 144.323 18.2 143.779 17.896C143.251 17.592 142.675 17.44 142.051 17.44C141.443 17.44 140.867 17.6 140.323 17.92C139.795 18.224 139.363 18.672 139.027 19.264C138.707 19.856 138.547 20.552 138.547 21.352C138.547 22.152 138.707 22.848 139.027 23.44C139.363 24.032 139.795 24.488 140.323 24.808C140.867 25.112 141.443 25.264 142.051 25.264C142.675 25.264 143.251 25.104 143.779 24.784C144.323 24.464 144.755 24.008 145.075 23.416C145.411 22.824 145.579 22.12 145.579 21.304ZM158.941 14.512C159.949 14.512 160.845 14.736 161.629 15.184C162.413 15.616 163.021 16.264 163.453 17.128C163.901 17.976 164.125 19 164.125 20.2V28H160.765V20.656C160.765 19.6 160.501 18.792 159.973 18.232C159.445 17.656 158.725 17.368 157.813 17.368C156.885 17.368 156.149 17.656 155.605 18.232C155.077 18.792 154.813 19.6 154.813 20.656V28H151.453V10.24H154.813V16.36C155.245 15.784 155.821 15.336 156.541 15.016C157.261 14.68 158.061 14.512 158.941 14.512ZM179.68 21.064C179.68 21.544 179.648 21.976 179.584 22.36H169.864C169.944 23.32 170.28 24.072 170.872 24.616C171.464 25.16 172.192 25.432 173.056 25.432C174.304 25.432 175.192 24.896 175.72 23.824H179.344C178.96 25.104 178.224 26.16 177.136 26.992C176.048 27.808 174.712 28.216 173.128 28.216C171.848 28.216 170.696 27.936 169.672 27.376C168.664 26.8 167.872 25.992 167.296 24.952C166.736 23.912 166.456 22.712 166.456 21.352C166.456 19.976 166.736 18.768 167.296 17.728C167.856 16.688 168.64 15.888 169.648 15.328C170.656 14.768 171.816 14.488 173.128 14.488C174.392 14.488 175.52 14.76 176.512 15.304C177.52 15.848 178.296 16.624 178.84 17.632C179.4 18.624 179.68 19.768 179.68 21.064ZM176.2 20.104C176.184 19.24 175.872 18.552 175.264 18.04C174.656 17.512 173.912 17.248 173.032 17.248C172.2 17.248 171.496 17.504 170.92 18.016C170.36 18.512 170.016 19.208 169.888 20.104H176.2ZM185.493 16.768C185.925 16.064 186.485 15.512 187.173 15.112C187.877 14.712 188.677 14.512 189.573 14.512V18.04H188.685C187.629 18.04 186.829 18.288 186.285 18.784C185.757 19.28 185.493 20.144 185.493 21.376V28H182.133V14.704H185.493V16.768ZM204.196 21.064C204.196 21.544 204.164 21.976 204.1 22.36H194.38C194.46 23.32 194.796 24.072 195.388 24.616C195.98 25.16 196.708 25.432 197.572 25.432C198.82 25.432 199.708 24.896 200.236 23.824H203.86C203.476 25.104 202.74 26.16 201.652 26.992C200.564 27.808 199.228 28.216 197.644 28.216C196.364 28.216 195.212 27.936 194.188 27.376C193.18 26.8 192.388 25.992 191.812 24.952C191.252 23.912 190.972 22.712 190.972 21.352C190.972 19.976 191.252 18.768 191.812 17.728C192.372 16.688 193.156 15.888 194.164 15.328C195.172 14.768 196.332 14.488 197.644 14.488C198.908 14.488 200.036 14.76 201.028 15.304C202.036 15.848 202.812 16.624 203.356 17.632C203.916 18.624 204.196 19.768 204.196 21.064ZM200.716 20.104C200.7 19.24 200.388 18.552 199.78 18.04C199.172 17.512 198.428 17.248 197.548 17.248C196.716 17.248 196.012 17.504 195.436 18.016C194.876 18.512 194.532 19.208 194.404 20.104H200.716Z" fill="white"/>
<defs>
<linearGradient id="paint0_linear_4_19" x1="31.7723" y1="8" x2="64.7723" y2="35" gradientUnits="userSpaceOnUse">
<stop stop-color="#4A91E7"/>
<stop offset="0.293073" stop-color="#6781DF"/>
<stop offset="0.573332" stop-color="#8D78C9"/>
<stop offset="1" stop-color="#C5677E"/>
</linearGradient>
</defs>
</svg>
