<svg width="218" height="40" viewBox="0 0 218 40" fill="none" xmlns="http://www.w3.org/2000/svg">
<path d="M201 9.42857C201 8.63959 201.64 8 202.429 8H205.286C206.075 8 206.715 8.63959 206.715 9.42857C206.715 10.2175 206.075 10.8572 205.286 10.8572H202.429C201.64 10.8572 201 10.2175 201 9.42857Z" fill="#191919"/>
<path fill-rule="evenodd" clip-rule="evenodd" d="M49 0C60.0453 0 69.0003 8.95431 69.0003 20C69.0003 31.0457 60.0453 40 49 40C37.9543 40 29 31.0457 29 20C29 8.95431 37.9543 0 49 0ZM48.2771 1.49659C45.9954 1.81769 43.8228 3.65108 42.1363 6.7174C41.6471 7.60683 41.2057 8.58946 40.8211 9.65044C43.1143 9.07417 45.6334 8.73442 48.2771 8.68187V1.49659ZM39.1307 10.1308C39.6091 8.62958 40.1942 7.2484 40.8695 6.02065C41.7055 4.50059 42.6977 3.18795 43.8156 2.17977C37.7367 3.94523 32.9452 8.73679 31.1797 14.8157C32.1879 13.6978 33.5005 12.7056 35.0206 11.8696C36.2484 11.1943 37.6295 10.6091 39.1307 10.1308ZM38.6504 11.8211C38.0741 14.1143 37.7344 16.6334 37.6818 19.2771H30.4965C30.8176 16.9954 32.651 14.8228 35.7174 13.1364C36.6068 12.6472 37.5894 12.2058 38.6504 11.8211ZM39.1279 19.2771C39.1876 16.392 39.603 13.6834 40.2902 11.2902C42.6834 10.603 45.392 10.1876 48.2771 10.1279V13.2508C47.2008 16.0062 45.0056 18.2012 42.2501 19.2771H39.1279ZM37.6818 20.7229H30.4965C30.8176 23.0046 32.651 25.1771 35.7174 26.8636C36.6068 27.3528 37.5894 27.7942 38.6504 28.1789C38.0741 25.8857 37.7344 23.3666 37.6818 20.7229ZM40.2902 28.7098C39.603 26.3166 39.1876 23.608 39.1279 20.7229H42.2501C45.0056 21.7988 47.2008 23.9938 48.2771 26.7492V29.8721C45.392 29.8124 42.6834 29.397 40.2902 28.7098ZM39.1307 29.8692C37.6295 29.3909 36.2484 28.8057 35.0206 28.1304C33.5005 27.2944 32.1879 26.3022 31.1797 25.1843C32.9452 31.2632 37.7367 36.0548 43.8156 37.8202C42.6977 36.812 41.7055 35.4994 40.8695 33.9793C40.1942 32.7516 39.6091 31.3704 39.1307 29.8692ZM48.2771 38.5034C45.9954 38.1823 43.8228 36.3489 42.1363 33.2826C41.6471 32.3932 41.2057 31.4105 40.8211 30.3496C43.1143 30.9258 45.6334 31.2656 48.2771 31.3181V38.5034ZM54.1843 37.8202C55.3022 36.812 56.2943 35.4994 57.1303 33.9793C57.8053 32.7516 58.3913 31.3704 58.8693 29.8692C60.3703 29.3909 61.7513 28.8057 62.9793 28.1304C64.4993 27.2944 65.8123 26.3022 66.8203 25.1843C65.0543 31.2632 60.2633 36.0548 54.1843 37.8202ZM57.1793 30.3496C56.7943 31.4105 56.3523 32.3932 55.8633 33.2826C54.1771 36.3489 52.0045 38.1823 49.7228 38.5034V31.3181C52.3665 31.2656 54.8856 30.9258 57.1793 30.3496ZM59.3493 28.1789C60.4103 27.7942 61.3933 27.3528 62.2823 26.8636C65.3493 25.1772 67.1823 23.0046 67.5033 20.7229H60.3183C60.2653 23.3666 59.9253 25.8857 59.3493 28.1789ZM58.8723 20.7229C58.8123 23.608 58.3973 26.3166 57.7093 28.7098C55.3165 29.397 52.6079 29.8124 49.7228 29.8721V26.7515C50.7988 23.9951 52.9945 21.7991 55.7507 20.7229H58.8723ZM60.3183 19.2771H67.5033C67.1823 16.9954 65.3493 14.8228 62.2823 13.1364C61.3933 12.6472 60.4103 12.2058 59.3493 11.8211C59.9253 14.1143 60.2653 16.6334 60.3183 19.2771ZM57.7093 11.2902C58.3973 13.6834 58.8123 16.392 58.8723 19.2771H55.7508C52.9945 18.2009 50.7988 16.0049 49.7228 13.2485V10.1279C52.6079 10.1876 55.3165 10.603 57.7093 11.2902ZM58.8693 10.1308C60.3703 10.6091 61.7513 11.1943 62.9793 11.8696C64.4993 12.7056 65.8123 13.6978 66.8203 14.8157C65.0543 8.73679 60.2633 3.94523 54.1843 2.17977C55.3022 3.18795 56.2943 4.50059 57.1303 6.02065C57.8053 7.2484 58.3913 8.62958 58.8693 10.1308ZM49.7228 1.49659C52.0045 1.81769 54.1771 3.65108 55.8633 6.7174C56.3523 7.60684 56.7943 8.58946 57.1793 9.65044C54.8856 9.07417 52.3665 8.73442 49.7228 8.68187V1.49659Z" fill="url(#paint0_linear_4_19)"/>
<path d="M124.44 26.168C123.272 26.168 122.216 25.968 121.272 25.568C120.344 25.168 119.608 24.592 119.064 23.84C118.52 23.088 118.24 22.2 118.224 21.176H121.824C121.872 21.864 122.112 22.408 122.544 22.808C122.992 23.208 123.6 23.408 124.368 23.408C125.152 23.408 125.768 23.224 126.216 22.856C126.664 22.472 126.888 21.976 126.888 21.368C126.888 20.872 126.736 20.464 126.432 20.144C126.128 19.824 125.744 19.576 125.28 19.4C124.832 19.208 124.208 19 123.408 18.776C122.32 18.456 121.432 18.144 120.744 17.84C120.072 17.52 119.488 17.048 118.992 16.424C118.512 15.784 118.272 14.936 118.272 13.88C118.272 12.888 118.52 12.024 119.016 11.288C119.512 10.552 120.208 9.992 121.104 9.608C122 9.208 123.024 9.008 124.176 9.008C125.904 9.008 127.304 9.432 128.376 10.28C129.464 11.112 130.064 12.28 130.176 13.784H126.48C126.448 13.208 126.2 12.736 125.736 12.368C125.288 11.984 124.688 11.792 123.936 11.792C123.28 11.792 122.752 11.96 122.352 12.296C121.968 12.632 121.776 13.12 121.776 13.76C121.776 14.208 121.92 14.584 122.208 14.888C122.512 15.176 122.88 15.416 123.312 15.608C123.76 15.784 124.384 15.992 125.184 16.232C126.272 16.552 127.16 16.872 127.848 17.192C128.536 17.512 129.128 17.992 129.624 18.632C130.12 19.272 130.368 20.112 130.368 21.152C130.368 22.048 130.136 22.88 129.672 23.648C129.208 24.416 128.528 25.032 127.632 25.496C126.736 25.944 125.672 26.168 124.44 26.168ZM136.641 14.624C137.073 14.016 137.665 13.512 138.417 13.112C139.185 12.696 140.057 12.488 141.033 12.488C142.169 12.488 143.193 12.768 144.105 13.328C145.033 13.888 145.761 14.688 146.289 15.728C146.833 16.752 147.105 17.944 147.105 19.304C147.105 20.664 146.833 21.872 146.289 22.928C145.761 23.968 145.033 24.776 144.105 25.352C143.193 25.928 142.169 26.216 141.033 26.216C140.057 26.216 139.193 26.016 138.441 25.616C137.705 25.216 137.105 24.712 136.641 24.104V32.336H133.281V12.704H136.641V14.624ZM143.673 19.304C143.673 18.504 143.505 17.816 143.169 17.24C142.849 16.648 142.417 16.2 141.873 15.896C141.345 15.592 140.769 15.44 140.145 15.44C139.537 15.44 138.961 15.6 138.417 15.92C137.889 16.224 137.457 16.672 137.121 17.264C136.801 17.856 136.641 18.552 136.641 19.352C136.641 20.152 136.801 20.848 137.121 21.44C137.457 22.032 137.889 22.488 138.417 22.808C138.961 23.112 139.537 23.264 140.145 23.264C140.769 23.264 141.345 23.104 141.873 22.784C142.417 22.464 142.849 22.008 143.169 21.416C143.505 20.824 143.673 20.12 143.673 19.304ZM157.035 12.512C158.043 12.512 158.939 12.736 159.723 13.184C160.507 13.616 161.115 14.264 161.547 15.128C161.995 15.976 162.219 17 162.219 18.2V26H158.859V18.656C158.859 17.6 158.595 16.792 158.067 16.232C157.539 15.656 156.819 15.368 155.907 15.368C154.979 15.368 154.243 15.656 153.699 16.232C153.171 16.792 152.907 17.6 152.907 18.656V26H149.547V8.24H152.907V14.36C153.339 13.784 153.915 13.336 154.635 13.016C155.355 12.68 156.155 12.512 157.035 12.512ZM177.774 19.064C177.774 19.544 177.742 19.976 177.678 20.36H167.958C168.038 21.32 168.374 22.072 168.966 22.616C169.558 23.16 170.286 23.432 171.15 23.432C172.398 23.432 173.286 22.896 173.814 21.824H177.438C177.054 23.104 176.318 24.16 175.23 24.992C174.142 25.808 172.806 26.216 171.222 26.216C169.942 26.216 168.79 25.936 167.766 25.376C166.758 24.8 165.966 23.992 165.39 22.952C164.83 21.912 164.55 20.712 164.55 19.352C164.55 17.976 164.83 16.768 165.39 15.728C165.95 14.688 166.734 13.888 167.742 13.328C168.75 12.768 169.91 12.488 171.222 12.488C172.486 12.488 173.614 12.76 174.606 13.304C175.614 13.848 176.39 14.624 176.934 15.632C177.494 16.624 177.774 17.768 177.774 19.064ZM174.294 18.104C174.278 17.24 173.966 16.552 173.358 16.04C172.75 15.512 172.006 15.248 171.126 15.248C170.294 15.248 169.59 15.504 169.014 16.016C168.454 16.512 168.11 17.208 167.982 18.104H174.294ZM183.586 14.768C184.018 14.064 184.578 13.512 185.266 13.112C185.97 12.712 186.77 12.512 187.666 12.512V16.04H186.778C185.722 16.04 184.922 16.288 184.378 16.784C183.85 17.28 183.586 18.144 183.586 19.376V26H180.226V12.704H183.586V14.768ZM202.289 19.064C202.289 19.544 202.257 19.976 202.193 20.36H192.473C192.553 21.32 192.889 22.072 193.481 22.616C194.073 23.16 194.801 23.432 195.665 23.432C196.913 23.432 197.801 22.896 198.329 21.824H201.953C201.569 23.104 200.833 24.16 199.745 24.992C198.657 25.808 197.321 26.216 195.737 26.216C194.457 26.216 193.305 25.936 192.281 25.376C191.273 24.8 190.481 23.992 189.905 22.952C189.345 21.912 189.065 20.712 189.065 19.352C189.065 17.976 189.345 16.768 189.905 15.728C190.465 14.688 191.249 13.888 192.257 13.328C193.265 12.768 194.425 12.488 195.737 12.488C197.001 12.488 198.129 12.76 199.121 13.304C200.129 13.848 200.905 14.624 201.449 15.632C202.009 16.624 202.289 17.768 202.289 19.064ZM198.809 18.104C198.793 17.24 198.481 16.552 197.873 16.04C197.265 15.512 196.521 15.248 195.641 15.248C194.809 15.248 194.105 15.504 193.529 16.016C192.969 16.512 192.625 17.208 192.497 18.104H198.809Z" fill="url(#paint1_linear_4_19)"/>
<path d="M77.016 11.96V16.16H82.656V18.824H77.016V23.264H83.376V26H73.656V9.224H83.376V11.96H77.016ZM85.5654 19.304C85.5654 17.96 85.8294 16.768 86.3574 15.728C86.9014 14.688 87.6374 13.888 88.5654 13.328C89.4934 12.768 90.5254 12.488 91.6614 12.488C92.5254 12.488 93.3494 12.68 94.1334 13.064C94.9174 13.432 95.5414 13.928 96.0054 14.552V8.24H99.4134V26H96.0054V24.032C95.5894 24.688 95.0054 25.216 94.2534 25.616C93.5014 26.016 92.6294 26.216 91.6374 26.216C90.5174 26.216 89.4934 25.928 88.5654 25.352C87.6374 24.776 86.9014 23.968 86.3574 22.928C85.8294 21.872 85.5654 20.664 85.5654 19.304ZM96.0294 19.352C96.0294 18.536 95.8694 17.84 95.5494 17.264C95.2294 16.672 94.7974 16.224 94.2534 15.92C93.7094 15.6 93.1254 15.44 92.5014 15.44C91.8774 15.44 91.3014 15.592 90.7734 15.896C90.2454 16.2 89.8134 16.648 89.4774 17.24C89.1574 17.816 88.9974 18.504 88.9974 19.304C88.9974 20.104 89.1574 20.808 89.4774 21.416C89.8134 22.008 90.2454 22.464 90.7734 22.784C91.3174 23.104 91.8934 23.264 92.5014 23.264C93.1254 23.264 93.7094 23.112 94.2534 22.808C94.7974 22.488 95.2294 22.04 95.5494 21.464C95.8694 20.872 96.0294 20.168 96.0294 19.352ZM115.247 12.704V26H111.863V24.32C111.431 24.896 110.863 25.352 110.159 25.688C109.471 26.008 108.719 26.168 107.903 26.168C106.863 26.168 105.943 25.952 105.143 25.52C104.343 25.072 103.711 24.424 103.247 23.576C102.799 22.712 102.575 21.688 102.575 20.504V12.704H105.935V20.024C105.935 21.08 106.199 21.896 106.727 22.472C107.255 23.032 107.975 23.312 108.887 23.312C109.815 23.312 110.543 23.032 111.071 22.472C111.599 21.896 111.863 21.08 111.863 20.024V12.704H115.247Z" fill="#191919"/>
<defs>
<linearGradient id="paint0_linear_4_19" x1="31.7723" y1="8" x2="64.7723" y2="35" gradientUnits="userSpaceOnUse">
<stop stop-color="#4A91E7"/>
<stop offset="0.293073" stop-color="#6781DF"/>
<stop offset="0.573332" stop-color="#8D78C9"/>
<stop offset="1" stop-color="#C5677E"/>
</linearGradient>
<linearGradient id="paint1_linear_4_19" x1="122.5" y1="13.5" x2="204" y2="31" gradientUnits="userSpaceOnUse">
<stop stop-color="#6A8CE2"/>
<stop offset="1" stop-color="#B7D6FF"/>
</linearGradient>
</defs>
</svg>
